<?xml version="1.0" encoding="utf-8"?>
<!-- Generator: Adobe Illustrator 16.0.4, SVG Export Plug-In . SVG Version: 6.00 Build 0)  -->
<!DOCTYPE svg PUBLIC "-//W3C//DTD SVG 1.1//EN" "http://www.w3.org/Graphics/SVG/1.1/DTD/svg11.dtd">
<svg version="1.1" id="Layer_1" xmlns="http://www.w3.org/2000/svg" xmlns:xlink="http://www.w3.org/1999/xlink" x="0px" y="0px"
	 width="232px" height="59px" viewBox="0 0 232 59" enable-background="new 0 0 232 59" xml:space="preserve">
<path fill-rule="evenodd" clip-rule="evenodd" fill="#E52330" d="M230.008,44.268c0,7.023-5.718,12.746-12.75,12.746H14.718
	c-7.023,0-12.74-5.723-12.74-12.746V15.283c0-7.027,5.717-12.744,12.74-12.744h202.54c7.032,0,12.75,5.717,12.75,12.744V44.268
	L230.008,44.268z M217.258,0.551H14.718c-8.122,0-14.73,6.613-14.73,14.731v28.985C-0.012,52.39,6.597,59,14.718,59h202.54
	C225.388,59,232,52.39,232,44.268V15.283C232,7.164,225.388,0.551,217.258,0.551z"/>
<g>
	<path fill-rule="evenodd" clip-rule="evenodd" fill="#E52330" d="M25.673,22.976H25.51h-2.401v5.159H25.2
		c0.159,0,0.32-0.004,0.473-0.018c0.677-0.063,1.342-0.271,1.842-0.769c0.493-0.491,0.718-1.06,0.718-1.747
		c0-0.759-0.224-1.395-0.735-1.935C27.003,23.172,26.351,22.997,25.673,22.976z"/>
	<path fill-rule="evenodd" clip-rule="evenodd" fill="#E52330" d="M176.104,22.459h-0.02c-0.726,0-1.411,0.171-2.065,0.466
		c-0.687,0.3-1.271,0.734-1.766,1.29c-1.318,1.468-1.679,3.511-1.679,5.426c0,1.956,0.377,3.961,1.599,5.556
		c0.453,0.604,1.031,1.058,1.722,1.384c0.701,0.331,1.432,0.51,2.209,0.515h0.059c1.43,0,2.64-0.45,3.607-1.504
		c1.43-1.601,1.857-3.714,1.857-5.804c0-1.963-0.358-4.091-1.688-5.619C178.925,22.991,177.648,22.464,176.104,22.459z"/>
	<path fill-rule="evenodd" clip-rule="evenodd" fill="#E52330" d="M150.676,25.676c0.213-0.068,0.403-0.176,0.57-0.341
		c0.29-0.3,0.385-0.674,0.385-1.087c0-0.355-0.108-0.618-0.403-0.843c-0.165-0.126-0.354-0.221-0.552-0.289
		c-0.281-0.101-0.589-0.14-0.896-0.14h-1.797v2.792h2.06C150.257,25.768,150.481,25.746,150.676,25.676z"/>
	<path fill-rule="evenodd" clip-rule="evenodd" fill="#E52330" d="M151.006,32.864h-0.33h-2.692v3.716h2.692h0.483
		c0.343,0,1.125-0.031,1.411-0.201c0.596-0.37,0.804-0.896,0.804-1.582C153.374,33.243,152.456,32.864,151.006,32.864z"/>
	<path fill-rule="evenodd" clip-rule="evenodd" fill="#E52330" d="M124.571,22.459h-0.01c-0.735,0-1.422,0.171-2.078,0.466
		c-0.678,0.3-1.268,0.734-1.754,1.29c-1.327,1.468-1.686,3.511-1.686,5.426c0,1.956,0.375,3.961,1.594,5.556
		c0.46,0.604,1.042,1.058,1.733,1.384c0.697,0.331,1.428,0.51,2.2,0.515h0.05c1.431,0,2.65-0.45,3.616-1.504
		c1.434-1.601,1.861-3.714,1.861-5.804c0-1.963-0.359-4.091-1.686-5.619C127.392,22.991,126.117,22.464,124.571,22.459z"/>
	<path fill-rule="evenodd" clip-rule="evenodd" fill="#E52330" d="M222.896,18.572c0.063-0.089,0.09-0.198,0.09-0.337
		c0-0.156-0.041-0.272-0.122-0.37c-0.077-0.092-0.196-0.152-0.345-0.175c-0.059-0.011-0.215-0.017-0.468-0.017h-0.203h-0.711v1.139
		h0.675h0.239c0.312,0,0.503-0.019,0.591-0.047C222.745,18.731,222.836,18.661,222.896,18.572z"/>
	<path fill-rule="evenodd" clip-rule="evenodd" fill="#E52330" d="M217.258,4.53H14.718c-5.937,0-10.747,4.821-10.747,10.752v28.985
		c0,5.941,4.81,10.751,10.747,10.751h202.54c5.947,0,10.762-4.81,10.762-10.751V15.283C228.02,9.351,223.205,4.53,217.258,4.53z
		 M33.958,32.034c-1.821,2.232-4.421,3.075-7.258,3.075h-1.027h-2.565v3.965c0,0.921-0.079,2.036-0.498,2.877
		c-0.311,0.627-0.808,1.096-1.417,1.441c-0.608,0.346-1.281,0.535-1.985,0.535c-0.7,0-1.362-0.186-1.969-0.535
		c-0.603-0.346-1.099-0.811-1.423-1.438c-0.422-0.831-0.5-1.96-0.5-2.881v-17.88c0-0.58,0-1.253,0.093-1.834
		c0.19-1.048,0.748-1.919,1.607-2.572c0.814-0.587,1.829-0.781,2.821-0.781h5.835h0.233c2.615,0,5.29,0.555,7.246,2.399
		c0.977,0.907,1.699,2.014,2.211,3.241c0.524,1.264,0.79,2.588,0.79,3.955C36.153,27.991,35.461,30.17,33.958,32.034z
		 M45.877,39.074c0,0.921-0.075,2.036-0.491,2.873c-0.319,0.632-0.81,1.1-1.421,1.445c-0.608,0.346-1.273,0.535-1.983,0.535
		c-0.7,0-1.368-0.186-1.97-0.535c-0.602-0.346-1.095-0.811-1.425-1.438c-0.416-0.831-0.495-1.96-0.495-2.881V20.476
		c0-0.915,0.079-2.042,0.502-2.88c0.322-0.625,0.815-1.09,1.417-1.435c0.602-0.352,1.27-0.532,1.97-0.532
		c0.704,0,1.375,0.18,1.983,0.532c0.611,0.345,1.102,0.815,1.414,1.447c0.423,0.833,0.498,1.953,0.498,2.868V39.074z M60.169,26.182
		c0.84,0,1.868,0.075,2.622,0.45c0.581,0.282,1.027,0.729,1.35,1.291c0.32,0.557,0.496,1.167,0.496,1.809
		c0,0.646-0.176,1.25-0.496,1.81c-0.323,0.554-0.769,1.008-1.341,1.283c-0.764,0.378-1.791,0.452-2.631,0.452h-4.033v3.174h4.635
		c0.839,0,1.855,0.071,2.601,0.456c0.585,0.28,1.031,0.727,1.351,1.288c0.322,0.558,0.495,1.162,0.495,1.804
		c0,0.65-0.172,1.252-0.495,1.812c-0.32,0.562-0.766,1.01-1.349,1.277c-0.748,0.394-1.764,0.463-2.604,0.463h-7.177
		c-0.839,0.011-1.829-0.032-2.648-0.299c-0.524-0.188-0.991-0.52-1.377-0.908c-0.398-0.392-0.732-0.855-0.928-1.394
		c-0.262-0.796-0.304-1.785-0.294-2.607V21.21c0-0.579-0.004-1.255,0.087-1.848c0.184-1.05,0.743-1.911,1.607-2.575
		c0.817-0.588,1.836-0.781,2.83-0.781h7.901c0.839,0,1.855,0.069,2.601,0.448c0.591,0.282,1.031,0.734,1.351,1.296
		c0.322,0.553,0.495,1.162,0.495,1.804c0,0.641-0.172,1.251-0.495,1.809c-0.32,0.553-0.76,1.011-1.349,1.279
		c-0.748,0.383-1.764,0.459-2.604,0.459h-4.635v3.08H60.169z M86.947,21.364c-0.325,0.553-0.769,1.011-1.346,1.279
		c-0.768,0.394-1.786,0.459-2.624,0.459h-1.913v15.972c0,0.921-0.08,2.036-0.491,2.877c-0.314,0.627-0.809,1.096-1.413,1.441
		c-0.616,0.346-1.284,0.535-1.987,0.535c-0.707,0-1.369-0.186-1.976-0.535c-0.597-0.346-1.096-0.81-1.421-1.438
		c-0.418-0.831-0.499-1.96-0.499-2.881V23.102h-2.042c-0.842,0-1.858-0.076-2.624-0.454c-0.588-0.276-1.03-0.736-1.353-1.3
		c-0.315-0.552-0.489-1.156-0.489-1.793c0-0.648,0.177-1.256,0.515-1.817c0.322-0.542,0.754-0.993,1.314-1.273
		c0.76-0.39,1.794-0.459,2.636-0.459h11.74c0.838,0,1.856,0.069,2.613,0.448c0.588,0.282,1.032,0.734,1.357,1.296
		c0.322,0.553,0.486,1.162,0.486,1.804C87.433,20.196,87.269,20.806,86.947,21.364z M108.701,43.062
		c-0.707,0.614-1.572,0.92-2.509,0.92c-0.987,0-1.846-0.389-2.557-1.037c-0.37-0.311-0.728-0.776-1.043-1.151l-3.108-3.876
		l-2.537-3.157v4.314c0,0.92-0.077,2.035-0.497,2.872c-0.305,0.631-0.811,1.1-1.415,1.445s-1.275,0.535-1.98,0.535
		c-0.704,0-1.368-0.186-1.976-0.535c-0.598-0.346-1.089-0.811-1.423-1.438c-0.417-0.831-0.499-1.96-0.499-2.88V21.194
		c0-0.58,0-1.253,0.088-1.834c0.197-1.048,0.746-1.918,1.61-2.572c0.815-0.587,1.833-0.781,2.823-0.781h5.804h0.192
		c2.52,0,4.994,0.577,6.972,2.207c2.076,1.718,3.023,4.011,3.023,6.673c0,2.243-0.652,4.286-2.293,5.86
		c-0.833,0.797-1.821,1.378-2.938,1.702c-0.018,0.009-0.036,0.009-0.052,0.021l4.017,4.416c0.787,0.858,1.661,2.036,1.661,3.266
		C110.065,41.318,109.592,42.307,108.701,43.062z M133.721,40.88c-2.556,2.323-5.674,3.312-9.116,3.312h-0.033
		c-3.866-0.009-7.276-1.252-9.94-4.073c-2.709-2.861-3.78-6.453-3.78-10.332c0-4.269,1.248-8.201,4.549-11.055
		c2.625-2.261,5.721-3.33,9.171-3.366l0.194-0.005c2.666,0,5.133,0.718,7.393,2.146c2.34,1.486,4.024,3.553,5.048,6.123
		c0.768,1.958,1.076,4.032,1.076,6.121C138.282,34.065,136.97,37.938,133.721,40.88z M159.204,40.669
		c-1.769,1.947-4.037,2.881-6.671,2.881h-1.857h-5.232c-0.836,0.01-1.825-0.033-2.646-0.299c-0.528-0.188-0.996-0.52-1.379-0.914
		c-0.398-0.386-0.735-0.846-0.927-1.387c-0.271-0.797-0.31-1.786-0.299-2.608V21.194c0-0.58,0-1.253,0.088-1.834
		c0.196-1.048,0.747-1.919,1.615-2.572c0.809-0.588,1.828-0.781,2.82-0.781h5.915h0.044c1.399,0,2.96,0.155,4.232,0.752
		c1.455,0.683,2.589,1.744,3.347,3.155c0.569,1.068,0.846,2.218,0.846,3.431c0,1.728-0.524,3.287-1.73,4.526
		c-0.106,0.102-0.212,0.207-0.321,0.313c0.698,0.307,1.351,0.702,1.91,1.185c1.657,1.481,2.406,3.395,2.406,5.603
		C161.365,37.133,160.652,39.05,159.204,40.669z M185.253,40.88c-2.556,2.323-5.674,3.312-9.115,3.312h-0.034
		c-3.872-0.009-7.275-1.252-9.944-4.073c-2.706-2.861-3.778-6.453-3.778-10.332c0-4.269,1.242-8.201,4.547-11.055
		c2.63-2.261,5.729-3.33,9.176-3.366l0.185-0.005c2.672,0,5.145,0.718,7.394,2.146c2.347,1.486,4.024,3.553,5.049,6.123
		c0.76,1.958,1.087,4.032,1.087,6.121C189.817,34.065,188.491,37.938,185.253,40.88z M216.661,39.646
		c0,0.753-0.077,1.636-0.454,2.302c-0.722,1.255-1.84,1.98-3.309,1.98c-0.938,0-1.785-0.317-2.48-0.938
		c-0.423-0.366-0.952-1.095-1.286-1.539l-9.323-11.765v9.389c0,0.921-0.08,2.036-0.496,2.873c-0.309,0.632-0.808,1.1-1.421,1.445
		c-0.612,0.346-1.276,0.535-1.983,0.535c-0.7,0-1.361-0.186-1.964-0.535c-0.612-0.346-1.102-0.811-1.429-1.438
		c-0.417-0.831-0.498-1.96-0.498-2.881V19.555c0-1.039,0.308-1.998,1.013-2.784c0.755-0.82,1.797-1.142,2.901-1.142
		c1.297,0,2.335,0.647,3.126,1.639l9.824,12.265v-9.057c0-0.915,0.081-2.042,0.503-2.88c0.32-0.625,0.814-1.09,1.41-1.435
		c0.608-0.352,1.272-0.532,1.976-0.532c0.704,0,1.375,0.18,1.979,0.532c0.61,0.345,1.105,0.815,1.421,1.447
		c0.415,0.833,0.49,1.953,0.49,2.868V39.646z M222.016,22.981c-2.1,0-3.811-1.704-3.811-3.812c0-2.103,1.711-3.807,3.811-3.807
		c2.106,0,3.815,1.704,3.815,3.807C225.831,21.277,224.122,22.981,222.016,22.981z"/>
	<path fill-rule="evenodd" clip-rule="evenodd" fill="#E52330" d="M222.016,15.797c-1.872,0-3.371,1.513-3.371,3.372
		c0,1.869,1.499,3.381,3.371,3.381c1.87,0,3.381-1.513,3.381-3.381C225.396,17.31,223.886,15.797,222.016,15.797z M223.206,21.443
		l-0.662-0.996c-0.239-0.343-0.396-0.57-0.492-0.657v-0.008c-0.083-0.088-0.169-0.15-0.266-0.185c-0.1-0.037-0.252-0.05-0.467-0.05
		h-0.182v1.896h-0.912v-4.536h1.826h0.097c0.494,0,0.838,0.037,1.058,0.118c0.218,0.083,0.394,0.226,0.526,0.435
		c0.132,0.209,0.2,0.448,0.2,0.718c0,0.337-0.104,0.615-0.308,0.835c-0.199,0.229-0.485,0.364-0.894,0.424
		c0.196,0.113,0.36,0.239,0.492,0.38c0.136,0.141,0.301,0.384,0.521,0.736l0.557,0.889H223.206z"/>
	<path fill-rule="evenodd" clip-rule="evenodd" fill="#E52330" d="M99.596,22.977h-0.112h-2.537v4.162h2.537h0.237
		c0.644,0,1.252-0.142,1.71-0.604c0.382-0.385,0.584-0.821,0.584-1.361c0-0.695-0.259-1.221-0.786-1.658
		C100.755,23.126,100.208,22.977,99.596,22.977z"/>
</g>
</svg>
